<?xml version="1.0" encoding="UTF-8" standalone="no"?>
<!DOCTYPE svg PUBLIC "-//W3C//DTD SVG 1.1//EN"
 "http://www.w3.org/Graphics/SVG/1.1/DTD/svg11.dtd">
<!-- Generated by graphviz version 2.43.0 (0)
 -->
<!-- Title: G Pages: 1 -->
<svg width="483pt" height="617pt"
 viewBox="0.00 0.00 483.40 617.40" xmlns="http://www.w3.org/2000/svg" xmlns:xlink="http://www.w3.org/1999/xlink">
<g id="graph0" class="graph" transform="scale(1 1) rotate(0) translate(7.2 610.2)">
<title>G</title>
<!-- rec -->
<g id="node1" class="node">
<title>rec</title>
<path fill="#eef2f8" stroke="#1f3a68" d="M281.5,-603C281.5,-603 80.5,-603 80.5,-603 74.5,-603 68.5,-597 68.5,-591 68.5,-591 68.5,-579 68.5,-579 68.5,-573 74.5,-567 80.5,-567 80.5,-567 281.5,-567 281.5,-567 287.5,-567 293.5,-573 293.5,-579 293.5,-579 293.5,-591 293.5,-591 293.5,-597 287.5,-603 281.5,-603"/>
<text text-anchor="middle" x="181" y="-588.2" font-family="Inter" font-size="11.00">A record the analyst chose</text>
<text text-anchor="middle" x="181" y="-576.2" font-family="Inter" font-size="11.00">(event · incident · finding · threat model)</text>
</g>
<!-- min -->
<g id="node2" class="node">
<title>min</title>
<path fill="#ffffff" stroke="#1f3a68" d="M297.5,-542C297.5,-542 64.5,-542 64.5,-542 58.5,-542 52.5,-536 52.5,-530 52.5,-530 52.5,-518 52.5,-518 52.5,-512 58.5,-506 64.5,-506 64.5,-506 297.5,-506 297.5,-506 303.5,-506 309.5,-512 309.5,-518 309.5,-518 309.5,-530 309.5,-530 309.5,-536 303.5,-542 297.5,-542"/>
<text text-anchor="middle" x="181" y="-527.2" font-family="Inter" font-size="11.00">Allow&#45;listed fields, bounded,</text>
<text text-anchor="middle" x="181" y="-515.2" font-family="Inter" font-size="11.00">pseudonymised, invisible characters removed</text>
</g>
<!-- rec&#45;&gt;min -->
<g id="edge1" class="edge">
<title>rec&#45;&gt;min</title>
<path fill="none" stroke="#5b6b80" d="M181,-566.93C181,-561.12 181,-554.51 181,-548.28"/>
<polygon fill="#5b6b80" stroke="#5b6b80" points="183.1,-548.23 181,-542.23 178.9,-548.23 183.1,-548.23"/>
</g>
<!-- score -->
<g id="node3" class="node">
<title>score</title>
<path fill="#ffffff" stroke="#1f3a68" d="M283,-481C283,-481 79,-481 79,-481 73,-481 67,-475 67,-469 67,-469 67,-457 67,-457 67,-451 73,-445 79,-445 79,-445 283,-445 283,-445 289,-445 295,-451 295,-457 295,-457 295,-469 295,-469 295,-475 289,-481 283,-481"/>
<text text-anchor="middle" x="181" y="-466.2" font-family="Inter" font-size="11.00">Prompt&#45;risk score</text>
<text text-anchor="middle" x="181" y="-454.2" font-family="Inter" font-size="11.00">(named signals, shown with the answer)</text>
</g>
<!-- min&#45;&gt;score -->
<g id="edge2" class="edge">
<title>min&#45;&gt;score</title>
<path fill="none" stroke="#5b6b80" d="M181,-505.93C181,-500.12 181,-493.51 181,-487.28"/>
<polygon fill="#5b6b80" stroke="#5b6b80" points="183.1,-487.23 181,-481.23 178.9,-487.23 183.1,-487.23"/>
</g>
<!-- lim -->
<g id="node4" class="node">
<title>lim</title>
<path fill="#fff6e5" stroke="#b54708" d="M257.5,-420C257.5,-420 104.5,-420 104.5,-420 98.5,-420 92.5,-414 92.5,-408 92.5,-408 92.5,-396 92.5,-396 92.5,-390 98.5,-384 104.5,-384 104.5,-384 257.5,-384 257.5,-384 263.5,-384 269.5,-390 269.5,-396 269.5,-396 269.5,-408 269.5,-408 269.5,-414 263.5,-420 257.5,-420"/>
<text text-anchor="middle" x="181" y="-405.2" font-family="Inter" font-size="11.00">Limits checked first</text>
<text text-anchor="middle" x="181" y="-393.2" font-family="Inter" font-size="11.00">per user · per day · per answer</text>
</g>
<!-- score&#45;&gt;lim -->
<g id="edge3" class="edge">
<title>score&#45;&gt;lim</title>
<path fill="none" stroke="#5b6b80" d="M181,-444.93C181,-439.12 181,-432.51 181,-426.28"/>
<polygon fill="#5b6b80" stroke="#5b6b80" points="183.1,-426.23 181,-420.23 178.9,-426.23 183.1,-426.23"/>
</g>
<!-- prompt -->
<g id="node5" class="node">
<title>prompt</title>
<path fill="#ffffff" stroke="#1f3a68" d="M267,-359C267,-359 95,-359 95,-359 89,-359 83,-353 83,-347 83,-347 83,-335 83,-335 83,-329 89,-323 95,-323 95,-323 267,-323 267,-323 273,-323 279,-329 279,-335 279,-335 279,-347 279,-347 279,-353 273,-359 267,-359"/>
<text text-anchor="middle" x="181" y="-344.2" font-family="Inter" font-size="11.00">Data as JSON between</text>
<text text-anchor="middle" x="181" y="-332.2" font-family="Inter" font-size="11.00">nonce markers: never instructions</text>
</g>
<!-- lim&#45;&gt;prompt -->
<g id="edge4" class="edge">
<title>lim&#45;&gt;prompt</title>
<path fill="none" stroke="#5b6b80" d="M181,-383.93C181,-378.12 181,-371.51 181,-365.28"/>
<polygon fill="#5b6b80" stroke="#5b6b80" points="183.1,-365.23 181,-359.23 178.9,-365.23 183.1,-365.23"/>
</g>
<!-- prov -->
<g id="node6" class="node">
<title>prov</title>
<path fill="#f3eefb" stroke="#6941c6" d="M295.5,-298C295.5,-298 66.5,-298 66.5,-298 60.5,-298 54.5,-292 54.5,-286 54.5,-286 54.5,-274 54.5,-274 54.5,-268 60.5,-262 66.5,-262 66.5,-262 295.5,-262 295.5,-262 301.5,-262 307.5,-268 307.5,-274 307.5,-274 307.5,-286 307.5,-286 307.5,-292 301.5,-298 295.5,-298"/>
<text text-anchor="middle" x="181" y="-283.2" font-family="Inter" font-size="11.00">Provider</text>
<text text-anchor="middle" x="181" y="-271.2" font-family="Inter" font-size="11.00">offline (free) &#160;· &#160;Amazon Bedrock (Nova Micro)</text>
</g>
<!-- prompt&#45;&gt;prov -->
<g id="edge5" class="edge">
<title>prompt&#45;&gt;prov</title>
<path fill="none" stroke="#5b6b80" d="M181,-322.93C181,-317.12 181,-310.51 181,-304.28"/>
<polygon fill="#5b6b80" stroke="#5b6b80" points="183.1,-304.23 181,-298.23 178.9,-304.23 183.1,-304.23"/>
</g>
<!-- con -->
<g id="node7" class="node">
<title>con</title>
<path fill="#fff6e5" stroke="#b54708" d="M290.5,-237C290.5,-237 71.5,-237 71.5,-237 65.5,-237 59.5,-231 59.5,-225 59.5,-225 59.5,-205 59.5,-205 59.5,-199 65.5,-193 71.5,-193 71.5,-193 290.5,-193 290.5,-193 296.5,-193 302.5,-199 302.5,-205 302.5,-205 302.5,-225 302.5,-225 302.5,-231 296.5,-237 290.5,-237"/>
<text text-anchor="middle" x="181" y="-224.2" font-family="Inter" font-size="11.00">Contract: one strict JSON object;</text>
<text text-anchor="middle" x="181" y="-212.2" font-family="Inter" font-size="11.00">evidence quoted verbatim; known controls;</text>
<text text-anchor="middle" x="181" y="-200.2" font-family="Inter" font-size="11.00">allowed, tighten&#45;only actions</text>
</g>
<!-- prov&#45;&gt;con -->
<g id="edge6" class="edge">
<title>prov&#45;&gt;con</title>
<path fill="none" stroke="#5b6b80" d="M181,-261.78C181,-256.1 181,-249.63 181,-243.38"/>
<polygon fill="#5b6b80" stroke="#5b6b80" points="183.1,-243.24 181,-237.24 178.9,-243.24 183.1,-243.24"/>
</g>
<!-- rej -->
<g id="node8" class="node">
<title>rej</title>
<path fill="#fdecec" stroke="#b42318" d="M198,-158C198,-158 12,-158 12,-158 6,-158 0,-152 0,-146 0,-146 0,-134 0,-134 0,-128 6,-122 12,-122 12,-122 198,-122 198,-122 204,-122 210,-128 210,-134 210,-134 210,-146 210,-146 210,-152 204,-158 198,-158"/>
<text text-anchor="middle" x="105" y="-143.2" font-family="Inter" font-size="11.00">REJECTED or FAILED</text>
<text text-anchor="middle" x="105" y="-131.2" font-family="Inter" font-size="11.00">stored with our reason; nothing used</text>
</g>
<!-- con&#45;&gt;rej -->
<g id="edge7" class="edge">
<title>con&#45;&gt;rej</title>
<path fill="none" stroke="#5b6b80" d="M159.02,-192.89C149.13,-183.39 137.48,-172.2 127.53,-162.64"/>
<polygon fill="#5b6b80" stroke="#5b6b80" points="128.87,-161.02 123.09,-158.38 125.96,-164.05 128.87,-161.02"/>
<text text-anchor="middle" x="165" y="-173" font-family="Inter" font-size="10.00" fill="#5b6b80">breaks it</text>
</g>
<!-- ok -->
<g id="node9" class="node">
<title>ok</title>
<path fill="#e6f4f5" stroke="#0e7c86" d="M446,-158C446,-158 244,-158 244,-158 238,-158 232,-152 232,-146 232,-146 232,-134 232,-134 232,-128 238,-122 244,-122 244,-122 446,-122 446,-122 452,-122 458,-128 458,-134 458,-134 458,-146 458,-146 458,-152 452,-158 446,-158"/>
<text text-anchor="middle" x="345" y="-143.2" font-family="Inter" font-size="11.00">COMPLETED</text>
<text text-anchor="middle" x="345" y="-131.2" font-family="Inter" font-size="11.00">evidence · inference · recommendations</text>
</g>
<!-- con&#45;&gt;ok -->
<g id="edge8" class="edge">
<title>con&#45;&gt;ok</title>
<path fill="none" stroke="#5b6b80" d="M228.44,-192.89C251.37,-182.68 278.72,-170.5 301.17,-160.51"/>
<polygon fill="#5b6b80" stroke="#5b6b80" points="302.13,-162.38 306.76,-158.02 300.43,-158.54 302.13,-162.38"/>
<text text-anchor="middle" x="296" y="-173" font-family="Inter" font-size="10.00" fill="#5b6b80">meets it</text>
</g>
<!-- prop -->
<g id="node10" class="node">
<title>prop</title>
<path fill="#ffffff" stroke="#1f3a68" d="M386,-97C386,-97 304,-97 304,-97 298,-97 292,-91 292,-85 292,-85 292,-73 292,-73 292,-67 298,-61 304,-61 304,-61 386,-61 386,-61 392,-61 398,-67 398,-73 398,-73 398,-85 398,-85 398,-91 392,-97 386,-97"/>
<text text-anchor="middle" x="345" y="-82.2" font-family="Inter" font-size="11.00">Proposals (AIP&#45;n)</text>
<text text-anchor="middle" x="345" y="-70.2" font-family="Inter" font-size="11.00">awaiting a lead</text>
</g>
<!-- ok&#45;&gt;prop -->
<g id="edge9" class="edge">
<title>ok&#45;&gt;prop</title>
<path fill="none" stroke="#5b6b80" d="M345,-121.93C345,-116.12 345,-109.51 345,-103.28"/>
<polygon fill="#5b6b80" stroke="#5b6b80" points="347.1,-103.23 345,-97.23 342.9,-103.23 347.1,-103.23"/>
</g>
<!-- act -->
<g id="node11" class="node">
<title>act</title>
<path fill="#e6f4f5" stroke="#0e7c86" d="M457,-36C457,-36 233,-36 233,-36 227,-36 221,-30 221,-24 221,-24 221,-12 221,-12 221,-6 227,0 233,0 233,0 457,0 457,0 463,0 469,-6 469,-12 469,-12 469,-24 469,-24 469,-30 463,-36 457,-36"/>
<text text-anchor="middle" x="345" y="-21.2" font-family="Inter" font-size="11.00">Approved: runs as the lead through its own</text>
<text text-anchor="middle" x="345" y="-9.2" font-family="Inter" font-size="11.00">workflow (incident · change request · threat)</text>
</g>
<!-- prop&#45;&gt;act -->
<g id="edge10" class="edge">
<title>prop&#45;&gt;act</title>
<path fill="none" stroke="#5b6b80" d="M345,-60.93C345,-55.12 345,-48.51 345,-42.28"/>
<polygon fill="#5b6b80" stroke="#5b6b80" points="347.1,-42.23 345,-36.23 342.9,-42.23 347.1,-42.23"/>
</g>
</g>
</svg>
