<?xml version="1.0" encoding="UTF-8" standalone="no"?>
<!DOCTYPE svg PUBLIC "-//W3C//DTD SVG 1.1//EN"
 "http://www.w3.org/Graphics/SVG/1.1/DTD/svg11.dtd">
<!-- Generated by graphviz version 2.43.0 (0)
 -->
<!-- Title: G Pages: 1 -->
<svg width="760pt" height="233pt"
 viewBox="0.00 0.00 760.40 233.40" xmlns="http://www.w3.org/2000/svg" xmlns:xlink="http://www.w3.org/1999/xlink">
<g id="graph0" class="graph" transform="scale(1 1) rotate(0) translate(7.2 226.2)">
<title>G</title>
<!-- ask -->
<g id="node1" class="node">
<title>ask</title>
<text text-anchor="middle" x="60" y="-89.3" font-family="Inter" font-size="11.50">requester</text>
<text text-anchor="middle" x="60" y="-76.3" font-family="Inter" font-size="11.50">(lead, or developer</text>
<text text-anchor="middle" x="60" y="-63.3" font-family="Inter" font-size="11.50">on own application)</text>
</g>
<!-- R -->
<g id="node2" class="node">
<title>R</title>
<path fill="#ffffff" stroke="#1f3a68" d="M243,-97C243,-97 181,-97 181,-97 175,-97 169,-91 169,-85 169,-85 169,-73 169,-73 169,-67 175,-61 181,-61 181,-61 243,-61 243,-61 249,-61 255,-67 255,-73 255,-73 255,-85 255,-85 255,-91 249,-97 243,-97"/>
<text text-anchor="middle" x="212" y="-76.3" font-family="Inter" font-size="11.50">REQUESTED</text>
</g>
<!-- ask&#45;&gt;R -->
<g id="edge1" class="edge">
<title>ask&#45;&gt;R</title>
<path fill="none" stroke="#5b6b80" d="M120.28,-79C134.34,-79 149.18,-79 162.68,-79"/>
<polygon fill="#5b6b80" stroke="#5b6b80" points="162.79,-81.1 168.79,-79 162.79,-76.9 162.79,-81.1"/>
</g>
<!-- A -->
<g id="node3" class="node">
<title>A</title>
<path fill="#fff6e5" stroke="#b54708" d="M462,-158C462,-158 400,-158 400,-158 394,-158 388,-152 388,-146 388,-146 388,-134 388,-134 388,-128 394,-122 400,-122 400,-122 462,-122 462,-122 468,-122 474,-128 474,-134 474,-134 474,-146 474,-146 474,-152 468,-158 462,-158"/>
<text text-anchor="middle" x="431" y="-143.8" font-family="Inter" font-size="11.50">APPROVED</text>
<text text-anchor="middle" x="431" y="-130.8" font-family="Inter" font-size="11.50">expiry ≤ limit</text>
</g>
<!-- R&#45;&gt;A -->
<g id="edge2" class="edge">
<title>R&#45;&gt;A</title>
<path fill="none" stroke="#5b6b80" d="M254.16,-97.07C262.3,-100.29 270.85,-103.44 279,-106 312.74,-116.62 351.71,-125.31 381.61,-131.24"/>
<polygon fill="#5b6b80" stroke="#5b6b80" points="381.55,-133.37 387.84,-132.47 382.36,-129.25 381.55,-133.37"/>
<text text-anchor="middle" x="321.5" y="-129" font-family="Inter" font-size="10.00" fill="#5b6b80">another lead</text>
</g>
<!-- J -->
<g id="node4" class="node">
<title>J</title>
<path fill="#f2f4f7" stroke="#5b6b80" d="M462,-97C462,-97 400,-97 400,-97 394,-97 388,-91 388,-85 388,-85 388,-73 388,-73 388,-67 394,-61 400,-61 400,-61 462,-61 462,-61 468,-61 474,-67 474,-73 474,-73 474,-85 474,-85 474,-91 468,-97 462,-97"/>
<text text-anchor="middle" x="431" y="-76.3" font-family="Inter" font-size="11.50">REJECTED</text>
</g>
<!-- R&#45;&gt;J -->
<g id="edge3" class="edge">
<title>R&#45;&gt;J</title>
<path fill="none" stroke="#5b6b80" d="M255.1,-79C291.22,-79 343.29,-79 381.22,-79"/>
<polygon fill="#5b6b80" stroke="#5b6b80" points="381.65,-81.1 387.65,-79 381.65,-76.9 381.65,-81.1"/>
<text text-anchor="middle" x="321.5" y="-93" font-family="Inter" font-size="10.00" fill="#5b6b80">another lead,</text>
<text text-anchor="middle" x="321.5" y="-82" font-family="Inter" font-size="10.00" fill="#5b6b80">reason</text>
</g>
<!-- W -->
<g id="node5" class="node">
<title>W</title>
<path fill="#f2f4f7" stroke="#5b6b80" d="M462,-36C462,-36 400,-36 400,-36 394,-36 388,-30 388,-24 388,-24 388,-12 388,-12 388,-6 394,0 400,0 400,0 462,0 462,0 468,0 474,-6 474,-12 474,-12 474,-24 474,-24 474,-30 468,-36 462,-36"/>
<text text-anchor="middle" x="431" y="-15.3" font-family="Inter" font-size="11.50">WITHDRAWN</text>
</g>
<!-- R&#45;&gt;W -->
<g id="edge4" class="edge">
<title>R&#45;&gt;W</title>
<path fill="none" stroke="#5b6b80" d="M252.34,-60.9C261.01,-57.31 270.22,-53.79 279,-51 312.66,-40.29 351.63,-31.86 381.55,-26.21"/>
<polygon fill="#5b6b80" stroke="#5b6b80" points="382.28,-28.21 387.79,-25.05 381.51,-24.08 382.28,-28.21"/>
<text text-anchor="middle" x="321.5" y="-65" font-family="Inter" font-size="10.00" fill="#5b6b80">requester or lead,</text>
<text text-anchor="middle" x="321.5" y="-54" font-family="Inter" font-size="10.00" fill="#5b6b80">reason</text>
</g>
<!-- E -->
<g id="node6" class="node">
<title>E</title>
<path fill="#fdecec" stroke="#b42318" d="M707.5,-219C707.5,-219 645.5,-219 645.5,-219 639.5,-219 633.5,-213 633.5,-207 633.5,-207 633.5,-195 633.5,-195 633.5,-189 639.5,-183 645.5,-183 645.5,-183 707.5,-183 707.5,-183 713.5,-183 719.5,-189 719.5,-195 719.5,-195 719.5,-207 719.5,-207 719.5,-213 713.5,-219 707.5,-219"/>
<text text-anchor="middle" x="676.5" y="-198.3" font-family="Inter" font-size="11.50">EXPIRED</text>
</g>
<!-- A&#45;&gt;E -->
<g id="edge5" class="edge">
<title>A&#45;&gt;E</title>
<path fill="none" stroke="#5b6b80" stroke-dasharray="5,2" d="M470.57,-158.02C479.45,-161.7 488.94,-165.27 498,-168 540.84,-180.9 591.09,-189.68 627.17,-194.91"/>
<polygon fill="#5b6b80" stroke="#5b6b80" points="627.05,-197.02 633.29,-195.79 627.64,-192.86 627.05,-197.02"/>
<text text-anchor="middle" x="540.5" y="-201" font-family="Inter" font-size="10.00" fill="#5b6b80">on its date</text>
<text text-anchor="middle" x="540.5" y="-190" font-family="Inter" font-size="10.00" fill="#5b6b80">(no scheduler)</text>
</g>
<!-- C -->
<g id="node7" class="node">
<title>C</title>
<path fill="#e6f4f5" stroke="#0e7c86" d="M707.5,-158C707.5,-158 645.5,-158 645.5,-158 639.5,-158 633.5,-152 633.5,-146 633.5,-146 633.5,-134 633.5,-134 633.5,-128 639.5,-122 645.5,-122 645.5,-122 707.5,-122 707.5,-122 713.5,-122 719.5,-128 719.5,-134 719.5,-134 719.5,-146 719.5,-146 719.5,-152 713.5,-158 707.5,-158"/>
<text text-anchor="middle" x="676.5" y="-143.8" font-family="Inter" font-size="11.50">CLOSED</text>
<text text-anchor="middle" x="676.5" y="-130.8" font-family="Inter" font-size="11.50">issue fixed</text>
</g>
<!-- A&#45;&gt;C -->
<g id="edge6" class="edge">
<title>A&#45;&gt;C</title>
<path fill="none" stroke="#5b6b80" d="M474.14,-140C516.78,-140 582.62,-140 627.31,-140"/>
<polygon fill="#5b6b80" stroke="#5b6b80" points="627.47,-142.1 633.47,-140 627.47,-137.9 627.47,-142.1"/>
<text text-anchor="middle" x="540.5" y="-154" font-family="Inter" font-size="10.00" fill="#5b6b80">requester or lead,</text>
<text text-anchor="middle" x="540.5" y="-143" font-family="Inter" font-size="10.00" fill="#5b6b80">reason</text>
</g>
<!-- gate -->
<g id="node8" class="node">
<title>gate</title>
<polygon fill="#ffffff" stroke="#1f3a68" points="740,-97 607,-97 607,-61 746,-61 746,-91 740,-97"/>
<polyline fill="none" stroke="#1f3a68" points="740,-97 740,-91 "/>
<polyline fill="none" stroke="#1f3a68" points="746,-91 740,-91 "/>
<text text-anchor="middle" x="676.5" y="-82.8" font-family="Inter" font-size="11.50">accepted&#45;findings.toml</text>
<text text-anchor="middle" x="676.5" y="-69.8" font-family="Inter" font-size="11.50">(make accepted&#45;risks)</text>
</g>
<!-- A&#45;&gt;gate -->
<g id="edge7" class="edge">
<title>A&#45;&gt;gate</title>
<path fill="none" stroke="#5b6b80" stroke-dasharray="5,2" d="M474.24,-129.06C482.13,-127.03 490.31,-124.94 498,-123 531.76,-114.47 569.17,-105.17 600.91,-97.33"/>
<polygon fill="#5b6b80" stroke="#5b6b80" points="601.44,-99.36 606.77,-95.88 600.44,-95.28 601.44,-99.36"/>
<text text-anchor="middle" x="540.5" y="-126" font-family="Inter" font-size="10.00" fill="#5b6b80">scan finding</text>
</g>
</g>
</svg>
