<?xml version="1.0" encoding="UTF-8" standalone="no"?>
<!DOCTYPE svg PUBLIC "-//W3C//DTD SVG 1.1//EN"
 "http://www.w3.org/Graphics/SVG/1.1/DTD/svg11.dtd">
<!-- Generated by graphviz version 2.43.0 (0)
 -->
<!-- Title: G Pages: 1 -->
<svg width="462pt" height="379pt"
 viewBox="0.00 0.00 461.52 378.77" xmlns="http://www.w3.org/2000/svg" xmlns:xlink="http://www.w3.org/1999/xlink">
<g id="graph0" class="graph" transform="scale(1 1) rotate(0) translate(5.76 373.01)">
<title>G</title>
<g id="clust1" class="cluster">
<title>cluster_edge</title>
<path fill="transparent" stroke="#0e7c86" d="M20,-211.25C20,-211.25 246,-211.25 246,-211.25 252,-211.25 258,-217.25 258,-223.25 258,-223.25 258,-288.25 258,-288.25 258,-294.25 252,-300.25 246,-300.25 246,-300.25 20,-300.25 20,-300.25 14,-300.25 8,-294.25 8,-288.25 8,-288.25 8,-223.25 8,-223.25 8,-217.25 14,-211.25 20,-211.25"/>
<text text-anchor="middle" x="119" y="-287.05" font-family="Inter" font-size="11.50" fill="#0e7c86">edge network 172.30.86.0/24 (pinned)</text>
</g>
<g id="clust2" class="cluster">
<title>cluster_data</title>
<path fill="transparent" stroke="#1f3a68" d="M195,-8C195,-8 383,-8 383,-8 389,-8 395,-14 395,-20 395,-20 395,-85.25 395,-85.25 395,-91.25 389,-97.25 383,-97.25 383,-97.25 195,-97.25 195,-97.25 189,-97.25 183,-91.25 183,-85.25 183,-85.25 183,-20 183,-20 183,-14 189,-8 195,-8"/>
<text text-anchor="middle" x="289" y="-84.05" font-family="Inter" font-size="11.50" fill="#1f3a68">data network (internal: no route out)</text>
</g>
<!-- br -->
<g id="node1" class="node">
<title>br</title>
<path fill="#eef1f5" stroke="#9aa7b8" d="M232,-367.25C232,-367.25 34,-367.25 34,-367.25 28,-367.25 22,-361.25 22,-355.25 22,-355.25 22,-343.25 22,-343.25 22,-337.25 28,-331.25 34,-331.25 34,-331.25 232,-331.25 232,-331.25 238,-331.25 244,-337.25 244,-343.25 244,-343.25 244,-355.25 244,-355.25 244,-361.25 238,-367.25 232,-367.25"/>
<text text-anchor="middle" x="133" y="-345.85" font-family="Inter" font-size="13.00">Browser &#160;· &#160;http://localhost:8080</text>
</g>
<!-- web -->
<g id="node2" class="node">
<title>web</title>
<path fill="#e6f4f5" stroke="#0e7c86" d="M238,-271.25C238,-271.25 28,-271.25 28,-271.25 22,-271.25 16,-265.25 16,-259.25 16,-259.25 16,-231.25 16,-231.25 16,-225.25 22,-219.25 28,-219.25 28,-219.25 238,-219.25 238,-219.25 244,-219.25 250,-225.25 250,-231.25 250,-231.25 250,-259.25 250,-259.25 250,-265.25 244,-271.25 238,-271.25"/>
<text text-anchor="middle" x="133" y="-255.85" font-family="Inter" font-size="13.00">web: nginx&#45;unprivileged</text>
<text text-anchor="middle" x="133" y="-241.85" font-family="Inter" font-size="13.00">SPA + security headers</text>
<text text-anchor="middle" x="133" y="-227.85" font-family="Inter" font-size="13.00">X&#45;Forwarded&#45;For = $remote_addr</text>
</g>
<!-- br&#45;&gt;web -->
<g id="edge1" class="edge">
<title>br&#45;&gt;web</title>
<path fill="none" stroke="#5b6b80" d="M133,-330.95C133,-316.75 133,-296.25 133,-278.98"/>
<polygon fill="#5b6b80" stroke="#5b6b80" points="135.63,-278.8 133,-271.3 130.38,-278.8 135.63,-278.8"/>
<text text-anchor="middle" x="182.5" y="-311.45" font-family="Inter" font-size="11.00" fill="#3d4b5c"> &#160;bound to 127.0.0.1</text>
</g>
<!-- api -->
<g id="node3" class="node">
<title>api</title>
<path fill="#ffffff" stroke="#0e7c86" stroke-width="1.8" d="M211,-180.25C211,-180.25 55,-180.25 55,-180.25 49,-180.25 43,-174.25 43,-168.25 43,-168.25 43,-140.25 43,-140.25 43,-134.25 49,-128.25 55,-128.25 55,-128.25 211,-128.25 211,-128.25 217,-128.25 223,-134.25 223,-140.25 223,-140.25 223,-168.25 223,-168.25 223,-174.25 217,-180.25 211,-180.25"/>
<text text-anchor="middle" x="133" y="-164.85" font-family="Inter" font-size="13.00">api: FastAPI / Uvicorn</text>
<text text-anchor="middle" x="133" y="-150.85" font-family="Inter" font-size="13.00">connects as sentinel_app</text>
<text text-anchor="middle" x="133" y="-136.85" font-family="Inter" font-size="13.00">&#45;&#45;no&#45;proxy&#45;headers</text>
</g>
<!-- web&#45;&gt;api -->
<g id="edge2" class="edge">
<title>web&#45;&gt;api</title>
<path fill="none" stroke="#5b6b80" d="M133,-218.98C133,-209.32 133,-198.16 133,-187.9"/>
<polygon fill="#5b6b80" stroke="#5b6b80" points="135.63,-187.77 133,-180.27 130.38,-187.77 135.63,-187.77"/>
<text text-anchor="middle" x="150.5" y="-194.45" font-family="Inter" font-size="11.00" fill="#3d4b5c"> &#160;/api/*</text>
</g>
<!-- db -->
<g id="node5" class="node">
<title>db</title>
<path fill="#e8edf6" stroke="#1f3a68" d="M358,-63.6C358,-66.24 327.07,-68.38 289,-68.38 250.93,-68.38 220,-66.24 220,-63.6 220,-63.6 220,-20.65 220,-20.65 220,-18.01 250.93,-15.87 289,-15.87 327.07,-15.87 358,-18.01 358,-20.65 358,-20.65 358,-63.6 358,-63.6"/>
<path fill="none" stroke="#1f3a68" d="M358,-63.6C358,-60.97 327.07,-58.83 289,-58.83 250.93,-58.83 220,-60.97 220,-63.6"/>
<text text-anchor="middle" x="289" y="-45.73" font-family="Inter" font-size="13.00">db: PostgreSQL 17</text>
<text text-anchor="middle" x="289" y="-31.73" font-family="Inter" font-size="13.00">no published port</text>
</g>
<!-- api&#45;&gt;db -->
<g id="edge3" class="edge">
<title>api&#45;&gt;db</title>
<path fill="none" stroke="#5b6b80" d="M168.79,-127.99C192.08,-111.55 222.54,-90.04 246.98,-72.79"/>
<polygon fill="#5b6b80" stroke="#5b6b80" points="248.76,-74.74 253.38,-68.27 245.74,-70.45 248.76,-74.74"/>
</g>
<!-- mig -->
<g id="node4" class="node">
<title>mig</title>
<path fill="#e8edf6" stroke="#1f3a68" d="M438,-173.25C438,-173.25 260,-173.25 260,-173.25 254,-173.25 248,-167.25 248,-161.25 248,-161.25 248,-147.25 248,-147.25 248,-141.25 254,-135.25 260,-135.25 260,-135.25 438,-135.25 438,-135.25 444,-135.25 450,-141.25 450,-147.25 450,-147.25 450,-161.25 450,-161.25 450,-167.25 444,-173.25 438,-173.25"/>
<text text-anchor="middle" x="349" y="-157.85" font-family="Inter" font-size="13.00">migrate (one&#45;shot)</text>
<text text-anchor="middle" x="349" y="-143.85" font-family="Inter" font-size="13.00">Alembic as sentinel_migrator</text>
</g>
<!-- mig&#45;&gt;db -->
<g id="edge4" class="edge">
<title>mig&#45;&gt;db</title>
<path fill="none" stroke="#5b6b80" stroke-dasharray="5,2" d="M339.09,-135.07C330.22,-118.78 317.01,-94.53 306.38,-75.02"/>
<polygon fill="#5b6b80" stroke="#5b6b80" points="308.63,-73.67 302.74,-68.34 304.02,-76.18 308.63,-73.67"/>
<text text-anchor="middle" x="354.5" y="-108.45" font-family="Inter" font-size="11.00" fill="#3d4b5c"> &#160;runs first</text>
</g>
</g>
</svg>
